<?xml version="1.0" standalone="no"?>
<svg xmlns:xlink="http://www.w3.org/1999/xlink" id="wave" style="transform:rotate(0deg); transition: 0.3s" viewBox="0 0 1440 210" version="1.1" xmlns="http://www.w3.org/2000/svg"><defs><linearGradient id="sw-gradient-0" x1="0" x2="0" y1="1" y2="0"><stop stop-color="rgba(211, 224, 234, 1)" offset="0%"/><stop stop-color="rgba(211, 224, 234, 1)" offset="100%"/></linearGradient></defs><path style="transform:translate(0, 0px); opacity:1" fill="url(#sw-gradient-0)" d="M0,147L34.3,140C68.6,133,137,119,206,112C274.3,105,343,105,411,101.5C480,98,549,91,617,84C685.7,77,754,70,823,70C891.4,70,960,77,1029,98C1097.1,119,1166,154,1234,157.5C1302.9,161,1371,133,1440,101.5C1508.6,70,1577,35,1646,45.5C1714.3,56,1783,112,1851,143.5C1920,175,1989,182,2057,178.5C2125.7,175,2194,161,2263,129.5C2331.4,98,2400,49,2469,35C2537.1,21,2606,42,2674,56C2742.9,70,2811,77,2880,84C2948.6,91,3017,98,3086,87.5C3154.3,77,3223,49,3291,42C3360,35,3429,49,3497,73.5C3565.7,98,3634,133,3703,136.5C3771.4,140,3840,112,3909,112C3977.1,112,4046,140,4114,136.5C4182.9,133,4251,98,4320,73.5C4388.6,49,4457,35,4526,52.5C4594.3,70,4663,119,4731,143.5C4800,168,4869,168,4903,168L4937.1,168L4937.1,210L4902.9,210C4868.6,210,4800,210,4731,210C4662.9,210,4594,210,4526,210C4457.1,210,4389,210,4320,210C4251.4,210,4183,210,4114,210C4045.7,210,3977,210,3909,210C3840,210,3771,210,3703,210C3634.3,210,3566,210,3497,210C3428.6,210,3360,210,3291,210C3222.9,210,3154,210,3086,210C3017.1,210,2949,210,2880,210C2811.4,210,2743,210,2674,210C2605.7,210,2537,210,2469,210C2400,210,2331,210,2263,210C2194.3,210,2126,210,2057,210C1988.6,210,1920,210,1851,210C1782.9,210,1714,210,1646,210C1577.1,210,1509,210,1440,210C1371.4,210,1303,210,1234,210C1165.7,210,1097,210,1029,210C960,210,891,210,823,210C754.3,210,686,210,617,210C548.6,210,480,210,411,210C342.9,210,274,210,206,210C137.1,210,69,210,34,210L0,210Z"/></svg>